<?xml version="1.0" encoding="UTF-8" standalone="no"?>
<svg
   xmlns:dc="http://purl.org/dc/elements/1.1/"
   xmlns:cc="http://creativecommons.org/ns#"
   xmlns:rdf="http://www.w3.org/1999/02/22-rdf-syntax-ns#"
   xmlns:svg="http://www.w3.org/2000/svg"
   xmlns="http://www.w3.org/2000/svg"
   xmlns:sodipodi="http://sodipodi.sourceforge.net/DTD/sodipodi-0.dtd"
   xmlns:inkscape="http://www.inkscape.org/namespaces/inkscape"
   aria-label="Jigsaw"
   viewBox="0 0 55 55"
   version="1.1"
   id="svg4"
   sodipodi:docname="logo-white.svg"
   inkscape:version="1.0.1 (3bc2e813f5, 2020-09-07)">
  <metadata
     id="metadata10">
    <rdf:RDF>
      <cc:Work
         rdf:about="">
        <dc:format>image/svg+xml</dc:format>
        <dc:type
           rdf:resource="http://purl.org/dc/dcmitype/StillImage" />
        <dc:title></dc:title>
      </cc:Work>
    </rdf:RDF>
  </metadata>
  <defs
     id="defs8" />
  <sodipodi:namedview
     pagecolor="#ffffff"
     bordercolor="#666666"
     borderopacity="1"
     objecttolerance="10"
     gridtolerance="10"
     guidetolerance="10"
     inkscape:pageopacity="0"
     inkscape:pageshadow="2"
     inkscape:window-width="1920"
     inkscape:window-height="1046"
     id="namedview6"
     showgrid="false"
     inkscape:zoom="3.9090909"
     inkscape:cx="21.662043"
     inkscape:cy="19.237135"
     inkscape:window-x="-11"
     inkscape:window-y="-11"
     inkscape:window-maximized="1"
     inkscape:current-layer="svg4" />
  <path
     d="M27.5 0l-4.927 9.825c1.575-.43 3.208-.687 4.927-.687 10.112 0 18.333 8.221 18.333 18.333 0 10.112-8.221 18.334-18.333 18.334-7.763 0-14.409-4.841-17.073-11.66L0 55h55V0H27.5z"
     fill-rule="inherit"
     id="path2" />
  <path
     style="fill:#ffffff;stroke-width:0.255814"
     d="m 0.42948483,54.66824 c 0,-0.251706 9.84885217,-19.826438 9.97519717,-19.825845 0.0712,2.56e-4 0.451835,0.617617 0.845856,1.371741 2.10652,4.031707 6.046655,7.305059 10.667319,8.862109 2.567842,0.865299 7.154822,0.998043 9.961562,0.288277 C 43.829998,42.342474 49.526928,29.104143 43.526618,18.299155 42.249881,16.000088 38.968857,12.719065 36.669791,11.442329 33.703172,9.7948836 31.450288,9.1987043 28.057392,9.1632368 26.439369,9.1463228 24.625985,9.2202301 24.02765,9.3274752 L 22.939768,9.5224663 25.30351,4.7867775 27.66725,0.05108874 H 41.292553 54.917857 V 27.423182 54.795275 H 27.673671 c -14.984302,0 -27.24418617,-0.05717 -27.24418617,-0.127035 z"
     id="path12" />
  <path
     style="fill:#ffffff;stroke-width:0.255814"
     d="M 12.099432,54.543421 0.61821577,54.411554 5.4404348,44.882484 c 2.6522207,-5.240988 4.9097422,-9.52907 5.0167142,-9.52907 0.106973,0 0.41624,0.434654 0.687261,0.9659 1.903485,3.731139 6.027991,7.212444 10.40538,8.782702 1.174947,0.421479 2.331528,0.573936 5.103697,0.672762 4.311333,0.153699 5.764407,-0.141234 9.333482,-1.894422 2.019096,-0.991814 2.802665,-1.566538 4.637849,-3.401722 1.849575,-1.849576 2.401074,-2.6046 3.395244,-4.648234 1.577684,-3.243117 2.022593,-5.42068 1.874526,-9.17466 C 45.693014,21.545196 44.169302,18.064803 40.537567,14.419489 36.401357,10.267814 32.214936,8.7450229 25.832926,9.0707434 l -2.610453,0.1332304 2.2909,-4.5764425 2.290901,-4.57644256 H 41.361065 54.917857 V 27.423182 54.795275 l -15.668605,-0.05999 c -8.617732,-0.033 -20.835152,-0.119334 -27.14982,-0.19186 z"
     id="path14" />
  <path
     style="fill:#ffffff;stroke-width:0.255814"
     d="M 12.132973,54.603481 C 5.8367523,54.565372 0.68529878,54.460112 0.68529878,54.36957 c 0,-0.321666 9.57685422,-19.016156 9.74163822,-19.016156 0.09222,0 0.608188,0.75325 1.146598,1.673888 1.936428,3.311143 5.741995,6.44457 9.611727,7.914104 1.643131,0.623979 2.341629,0.731057 5.468225,0.838259 4.306887,0.147668 5.771048,-0.149429 9.314987,-1.890128 4.241725,-2.083436 7.502379,-5.878963 9.159442,-10.661942 0.94425,-2.725506 1.101885,-7.193583 0.358487,-10.161168 -0.92609,-3.696877 -2.059146,-5.642018 -5.000441,-8.58437 C 38.348634,12.34396 37.53284,11.71683 35.72893,10.825151 32.859127,9.4065982 30.024478,8.8940245 26.084248,9.0811586 L 23.215756,9.2173923 25.510015,4.6342405 27.804274,0.05108874 H 41.361065 54.917857 V 27.423182 54.795275 L 39.249252,54.734023 C 30.63152,54.700334 18.429194,54.641589 12.132973,54.603481 Z"
     id="path16" />
</svg>
