<svg class="current__landing-hero__heading__logo current__landing-hero__heading__logo--mobile" fill="none" viewBox="0 0 335 163" xmlns="http://www.w3.org/2000/svg"><clipPath id="a"><path d="M0 0h335v162.32H0z"/></clipPath><g clip-path="url(#a)" fill="#121112"><path d="M30.968 6.447H4.087V0h62.165v6.447H39.37v70.05h-8.404V6.447zm66.078 14.447c-8.52 0-15.196 3.8-18.362 10.246l-.518 1.036-1.2 1.727 1.727-5.93V0H70.5v76.497h8.174V45.473c0-10.82 7.08-18.247 16.577-18.247 8.634 0 13.987 5.008 13.987 15.426v33.845h8.116V42.192c0-13.47-7.77-21.297-20.32-21.297zM122.488 49.8v-.46c0-17.498 11.34-28.722 25.787-28.722s24.923 10.82 24.923 28.492v1.324h-42.364c.115 13.757 7.08 21.412 18.016 21.412 8.3 0 14.218-4.374 16.06-11.8h7.885c-2.532 10.82-11.166 17.9-23.945 17.9-15.54.058-26.362-10.88-26.362-28.147zm8.52-5.353h34.075c-1.324-11.34-7.77-17.67-16.692-17.67-9.2 0-15.944 6.332-17.383 17.67zM57.56 137.223c-2.475 11.973-10.937 18.592-22.967 18.592-14.332 0-25.787-11.684-25.787-31.658v-3.05c0-19.57 11.167-32.118 26.132-32.118 11.455 0 19.8 6.332 22.4 17.498h8.174c-2.878-14.505-14.448-23.83-30.565-23.83-19.455 0-34.65 14.966-34.65 39.544v.864c0 24.347 14.448 39.083 34.306 39.083 16.692 0 28.607-9.325 31.14-24.924H57.56zm59.863 23.427h-8.174v-8.864c-3.166 6.447-9.843 10.246-18.36 10.246-12.548 0-20.32-7.886-20.32-21.297V106.43h8.06v33.845c0 10.36 5.353 15.426 13.987 15.426 9.498 0 16.578-7.425 16.578-18.246V106.43h8.23v54.22zm36.032-54.567c-8.864 0-15.368 3.396-18.88 9.267l-.518 1.037-1.2 1.726 1.727-5.928v-5.814H126.4v54.164h8.174V129.05c0-10.073 6.446-16.405 16.807-16.405h7.195v-6.677h-5.123v.115zm35.688 0c-8.865 0-15.427 3.396-18.88 9.267l-.518 1.037-1.2 1.726 1.727-5.928v-5.814h-8.174v54.164h8.174V129.05c0-10.073 6.447-16.405 16.807-16.405h7.195v-6.677h-5.122v.115zm3.397 27.86v-.402c0-17.5 11.34-28.723 25.787-28.723s24.923 10.82 24.923 28.492v1.324h-42.364c.115 13.757 7.08 21.413 18.016 21.413 8.3 0 14.217-4.375 16.06-11.8h7.886c-2.533 10.82-11.167 17.9-23.945 17.9-15.54 0-26.362-10.937-26.362-28.205zm8.518-5.353h34.076c-1.324-11.34-7.77-17.67-16.692-17.67-9.152 0-15.945 6.332-17.384 17.67zm74.54-23.542c-8.52 0-15.196 3.8-18.362 10.246l-.518 1.036-1.2 1.727 1.727-5.93v-5.698h-8.174v54.164h8.174v-31.025c0-10.822 7.08-18.247 16.635-18.247 8.634 0 13.987 5.008 13.987 15.426v33.846h8.116v-34.306c-.058-13.412-7.828-21.24-20.376-21.24zm32.522 44.783v-37.356h-9.958v-5.987h9.958v-15.83h8.173v15.83h18.247v5.987h-18.247v40.176c0 1.324.46 1.727 1.727 1.727h16.52v6.217h-14.506c-8 .057-11.914-3.57-11.914-10.764z"/></g></svg>