<svg class="current__landing-hero__heading__logo current__landing-hero__heading__logo--desktop" fill="none" viewBox="0 0 1266 193" xmlns="http://www.w3.org/2000/svg"><path d="M65.218 19.412H0V3.77h150.825v15.64H85.607v169.96h-20.39V19.412zM225.54 54.325c-20.669 0-36.868 9.217-44.549 24.858l-1.257 2.514-2.933 4.19 4.19-14.385V3.771H161.16v185.598h19.831v-75.413c0-26.254 17.177-44.27 40.22-44.27 20.948 0 33.935 12.15 33.935 37.427v82.116h19.691v-83.233c0-32.539-18.853-51.671-49.297-51.671zm61.724 70.245v-1.117c0-42.454 27.511-69.687 62.564-69.687s60.47 26.255 60.47 69.128v3.212H307.513c.28 33.377 17.178 51.951 43.712 51.951 20.11 0 34.494-10.613 38.963-28.629h18.992c-6.144 26.255-27.092 43.432-58.095 43.432-37.567.14-63.821-26.394-63.821-68.29zm20.668-12.987h82.675c-3.212-27.512-18.853-42.874-40.5-42.874-22.204 0-38.683 15.362-42.175 42.874zm285.592 20.947c-6.005 29.048-26.534 45.108-55.722 45.108-34.773 0-62.564-28.349-62.564-76.809v-7.401c0-47.482 27.093-77.927 63.402-77.927 27.791 0 48.041 15.362 54.325 42.455h19.831C605.674 22.484 577.603 0 538.501 0c-47.203 0-84.071 36.31-84.071 95.941v2.095c0 59.073 35.053 94.824 83.233 94.824 40.499 0 69.407-22.623 75.552-60.469h-19.691zm145.099 56.699h-19.831v-21.506c-7.681 15.641-23.881 24.858-44.549 24.858-30.445 0-49.298-19.132-49.298-51.671V57.816h19.552v82.116c0 25.137 12.987 37.427 33.935 37.427 23.043 0 40.22-18.015 40.22-44.27V57.816h19.831V189.23h.14zm87.563-132.25c-21.507 0-37.427 8.239-45.806 22.483l-1.257 2.514-2.933 4.19 4.19-14.385V57.816h-19.831V189.23h19.831v-76.39c0-24.439 15.641-39.8 40.778-39.8h17.457V56.98h-12.429zm86.584 0c-21.507 0-37.427 8.239-45.806 22.483l-1.257 2.514-2.933 4.19 4.19-14.385V57.816h-19.831V189.23h19.831v-76.39c0-24.439 15.641-39.8 40.778-39.8h17.457V56.98H912.77zm8.24 67.591v-1.117c0-42.454 27.511-69.687 62.564-69.687 35.056 0 60.466 26.255 60.466 69.128v3.212H941.259c.28 33.377 17.178 51.951 43.712 51.951 20.109 0 34.489-10.613 38.959-28.629h19.14c-6.15 26.255-27.1 43.432-58.099 43.432-37.707.14-63.961-26.394-63.961-68.29zm20.668-12.987h82.672c-3.21-27.512-18.85-42.874-40.497-42.874-22.344 0-38.683 15.362-42.175 42.874zm180.712-57.258c-20.67 0-36.87 9.217-44.55 24.858l-1.26 2.514-2.93 4.19 4.19-14.385V57.676h-19.83V189.09h19.83v-75.134c0-26.254 17.18-44.27 40.36-44.27 20.95 0 33.93 12.15 33.93 37.427v82.116h19.56v-83.233c0-32.539-18.72-51.671-49.3-51.671zm79.04 108.65V72.34h-24.16V57.816h24.16V19.412h19.83v38.404h44.27V72.34h-44.27v97.478c0 3.212 1.12 4.189 4.19 4.189h40.08v15.083h-35.19c-19.41.139-28.91-8.659-28.91-26.115z" fill="#000"/></svg>