<?xml version="1.0" encoding="UTF-8" standalone="no"?>
<svg
   xmlns:dc="http://purl.org/dc/elements/1.1/"
   xmlns:cc="http://creativecommons.org/ns#"
   xmlns:rdf="http://www.w3.org/1999/02/22-rdf-syntax-ns#"
   xmlns:svg="http://www.w3.org/2000/svg"
   xmlns="http://www.w3.org/2000/svg"
   xmlns:sodipodi="http://sodipodi.sourceforge.net/DTD/sodipodi-0.dtd"
   xmlns:inkscape="http://www.inkscape.org/namespaces/inkscape"
   class="current__landing-hero__heading__logo current__landing-hero__heading__logo--desktop"
   fill="none"
   viewBox="0 0 1266 193"
   version="1.1"
   id="svg4"
   sodipodi:docname="title-white.svg"
   inkscape:version="1.0.1 (3bc2e813f5, 2020-09-07)">
  <metadata
     id="metadata10">
    <rdf:RDF>
      <cc:Work
         rdf:about="">
        <dc:format>image/svg+xml</dc:format>
        <dc:type
           rdf:resource="http://purl.org/dc/dcmitype/StillImage" />
        <dc:title></dc:title>
      </cc:Work>
    </rdf:RDF>
  </metadata>
  <defs
     id="defs8" />
  <sodipodi:namedview
     pagecolor="#ffffff"
     bordercolor="#666666"
     borderopacity="1"
     objecttolerance="10"
     gridtolerance="10"
     guidetolerance="10"
     inkscape:pageopacity="0"
     inkscape:pageshadow="2"
     inkscape:window-width="1920"
     inkscape:window-height="1046"
     id="namedview6"
     showgrid="false"
     inkscape:zoom="1.1113744"
     inkscape:cx="633"
     inkscape:cy="92.450959"
     inkscape:window-x="-11"
     inkscape:window-y="-11"
     inkscape:window-maximized="1"
     inkscape:current-layer="svg4" />
  <path
     d="M65.218 19.412H0V3.77h150.825v15.64H85.607v169.96h-20.39V19.412zM225.54 54.325c-20.669 0-36.868 9.217-44.549 24.858l-1.257 2.514-2.933 4.19 4.19-14.385V3.771H161.16v185.598h19.831v-75.413c0-26.254 17.177-44.27 40.22-44.27 20.948 0 33.935 12.15 33.935 37.427v82.116h19.691v-83.233c0-32.539-18.853-51.671-49.297-51.671zm61.724 70.245v-1.117c0-42.454 27.511-69.687 62.564-69.687s60.47 26.255 60.47 69.128v3.212H307.513c.28 33.377 17.178 51.951 43.712 51.951 20.11 0 34.494-10.613 38.963-28.629h18.992c-6.144 26.255-27.092 43.432-58.095 43.432-37.567.14-63.821-26.394-63.821-68.29zm20.668-12.987h82.675c-3.212-27.512-18.853-42.874-40.5-42.874-22.204 0-38.683 15.362-42.175 42.874zm285.592 20.947c-6.005 29.048-26.534 45.108-55.722 45.108-34.773 0-62.564-28.349-62.564-76.809v-7.401c0-47.482 27.093-77.927 63.402-77.927 27.791 0 48.041 15.362 54.325 42.455h19.831C605.674 22.484 577.603 0 538.501 0c-47.203 0-84.071 36.31-84.071 95.941v2.095c0 59.073 35.053 94.824 83.233 94.824 40.499 0 69.407-22.623 75.552-60.469h-19.691zm145.099 56.699h-19.831v-21.506c-7.681 15.641-23.881 24.858-44.549 24.858-30.445 0-49.298-19.132-49.298-51.671V57.816h19.552v82.116c0 25.137 12.987 37.427 33.935 37.427 23.043 0 40.22-18.015 40.22-44.27V57.816h19.831V189.23h.14zm87.563-132.25c-21.507 0-37.427 8.239-45.806 22.483l-1.257 2.514-2.933 4.19 4.19-14.385V57.816h-19.831V189.23h19.831v-76.39c0-24.439 15.641-39.8 40.778-39.8h17.457V56.98h-12.429zm86.584 0c-21.507 0-37.427 8.239-45.806 22.483l-1.257 2.514-2.933 4.19 4.19-14.385V57.816h-19.831V189.23h19.831v-76.39c0-24.439 15.641-39.8 40.778-39.8h17.457V56.98H912.77zm8.24 67.591v-1.117c0-42.454 27.511-69.687 62.564-69.687 35.056 0 60.466 26.255 60.466 69.128v3.212H941.259c.28 33.377 17.178 51.951 43.712 51.951 20.109 0 34.489-10.613 38.959-28.629h19.14c-6.15 26.255-27.1 43.432-58.099 43.432-37.707.14-63.961-26.394-63.961-68.29zm20.668-12.987h82.672c-3.21-27.512-18.85-42.874-40.497-42.874-22.344 0-38.683 15.362-42.175 42.874zm180.712-57.258c-20.67 0-36.87 9.217-44.55 24.858l-1.26 2.514-2.93 4.19 4.19-14.385V57.676h-19.83V189.09h19.83v-75.134c0-26.254 17.18-44.27 40.36-44.27 20.95 0 33.93 12.15 33.93 37.427v82.116h19.56v-83.233c0-32.539-18.72-51.671-49.3-51.671zm79.04 108.65V72.34h-24.16V57.816h24.16V19.412h19.83v38.404h44.27V72.34h-44.27v97.478c0 3.212 1.12 4.189 4.19 4.189h40.08v15.083h-35.19c-19.41.139-28.91-8.659-28.91-26.115z"
     fill="#000"
     id="path2" />
  <path
     style="fill:#ffffff;stroke-width:0.899787"
     d="M 65.234542,103.69829 V 18.668443 H 32.842217 0.44989339 V 11.470149 4.271855 H 75.58209 h 75.1322 v 7.198294 7.198294 H 117.87207 85.029851 v 85.029847 85.02985 h -9.897655 -9.897654 z"
     id="path12" />
  <path
     style="fill:#ffffff;stroke-width:0.899787"
     d="M 161.51173,96.5 V 4.271855 h 9.44776 9.44776 l -0.007,33.966951 c -0.006,31.303807 -0.14689,34.425506 -1.7927,39.815565 -3.17905,10.411441 -1.86839,10.320791 3.79885,-0.262742 7.98069,-14.903911 26.74835,-24.07965 46.58921,-22.778045 13.75577,0.90241 23.45189,4.917649 31.44799,13.022865 6.11488,6.198324 9.42407,12.203133 11.76143,21.342135 1.65987,6.490045 1.77991,10.074768 1.77991,53.154476 v 46.19508 h -8.92033 -8.92034 l -0.39323,-45.66417 c -0.31931,-37.08076 -0.64635,-46.509839 -1.73987,-50.163117 -4.11952,-13.762669 -12.26105,-20.925111 -26.25926,-23.101364 -17.40619,-2.70608 -34.41431,5.842246 -41.88236,21.050183 -5.07295,10.330558 -5.42957,14.132098 -5.44681,58.062908 l -0.0156,39.81556 h -9.44776 -9.44776 z"
     id="path14" />
  <path
     style="fill:#ffffff;stroke-width:0.899787"
     d="m 336.96834,191.05247 c -33.38693,-7.01172 -52.88353,-37.59319 -48.67932,-76.35616 2.71317,-25.015565 14.19756,-43.413084 33.55216,-53.749175 11.16732,-5.963773 29.16188,-8.080264 42.46615,-4.994798 25.92993,6.013551 43.15797,29.230287 45.23752,60.962643 l 0.57854,8.82809 h -51.4231 -51.4231 v 4.53687 c 0,12.31396 5.49398,27.42943 12.98097,35.7143 14.26436,15.78446 45.40311,16.58482 60.43458,1.55335 3.78042,-3.78043 9.36483,-13.40196 9.36483,-16.13493 0,-1.14225 1.52501,-1.37535 8.99787,-1.37535 10.24038,0 10.06357,-0.1833 7.0445,7.30326 -6.41864,15.91661 -17.94927,26.59126 -34.488,31.92772 -8.91669,2.8771 -25.39793,3.72591 -34.6436,1.78418 z m 53.98902,-80.46184 c 0,-3.56369 -3.61937,-15.531688 -6.30761,-20.857048 -5.33023,-10.559133 -13.57437,-17.282397 -24.7665,-20.197574 -18.88007,-4.917636 -38.05182,4.160367 -46.53818,22.036272 -2.51337,5.294236 -6.06788,17.1136 -6.06788,20.17677 0,0.27347 18.82803,0.49722 41.84008,0.49722 40.02778,0 41.84009,-0.0717 41.84009,-1.65564 z"
     id="path16" />
  <path
     style="fill:#ffffff;stroke-width:0.899787"
     d="m 525.92537,191.78695 c -18.96835,-3.47813 -32.67889,-10.08481 -44.0235,-21.21351 -16.80509,-16.48526 -25.56346,-38.62863 -26.80705,-67.77493 -1.44047,-33.760766 8.32167,-61.553823 28.33712,-80.676472 9.87907,-9.438403 21.03535,-15.607863 34.84525,-19.269526 7.41895,-1.96712034 24.66559,-2.66144567 33.61273,-1.3532011 23.90749,3.495737 43.63006,17.2289721 53.98253,37.5891421 1.57809,3.103613 6.43245,16.662151 6.43245,17.966223 0,0.201015 -4.27439,0.250557 -9.49864,0.110094 l -9.49865,-0.255388 -1.97363,-5.848614 c -8.01094,-23.739392 -29.51243,-37.342325 -56.41074,-35.688299 -14.13521,0.869199 -25.61447,5.477589 -35.42483,14.221414 -16.39847,14.615723 -24.83471,37.634015 -24.85097,67.805904 -0.0197,36.627823 13.36354,63.438603 37.35705,74.837613 16.14535,7.67045 37.01614,7.6089 53.36974,-0.1574 12.78005,-6.06921 23.97708,-20.21912 27.26243,-34.45207 l 1.0818,-4.68657 h 9.39336 9.39336 l -0.61579,3.37421 c -2.34252,12.8357 -9.11721,25.25238 -19.28913,35.35318 -6.35141,6.30701 -9.27136,8.44217 -16.28683,11.90943 -12.29494,6.07655 -20.29388,7.94832 -35.54157,8.31682 -6.92836,0.16743 -13.60928,0.11882 -14.84649,-0.10805 z"
     id="path18" />
  <path
     style="fill:#ffffff;stroke-width:0.899787"
     d="m 662.80141,191.02243 c -9.13501,-1.73644 -17.50532,-6.05526 -23.50664,-12.12869 -6.06559,-6.13847 -9.37944,-12.16039 -11.71315,-21.28512 -1.65988,-6.49004 -1.77991,-10.07477 -1.77991,-53.15447 V 58.259062 h 8.99786 8.99787 l 0.007,42.514928 c 0.004,24.94518 0.39224,44.93192 0.93948,48.36354 1.85208,11.614 8.21008,21.15603 16.78109,25.18487 2.1207,0.99685 6.66059,2.29342 10.08863,2.88126 17.23831,2.95604 35.12552,-6.14379 42.51612,-21.62939 4.68716,-9.82107 5.18388,-15.37971 5.21858,-58.39943 l 0.0314,-38.915778 h 9.44776 9.44776 v 65.234538 65.23454 h -9.42006 -9.42007 l -0.25264,-11.00633 -0.25264,-11.00635 -3.01955,4.71008 c -5.76776,8.99692 -15.23681,15.72199 -26.34136,18.70805 -7.25457,1.9508 -19.10969,2.34445 -26.76732,0.88884 z"
     id="path20" />
  <path
     style="fill:#ffffff;stroke-width:0.899787"
     d="M 760.76972,123.4936 V 58.259062 h 9.44776 9.44777 v 6.915953 c 0,4.264139 -0.7167,9.470103 -1.86915,13.577194 -1.02803,3.663681 -1.66535,6.865035 -1.41627,7.114119 0.24909,0.249084 2.12762,-2.19888 4.17452,-5.439921 6.6765,-10.57148 16.09992,-17.479837 28.50779,-20.89919 2.91319,-0.802815 10.54509,-1.658179 17.16707,-1.92404 l 11.92218,-0.478655 v 7.658061 7.658061 l -14.17165,0.445725 c -11.45097,0.360156 -15.20808,0.817949 -19.57036,2.384586 -10.7439,3.85849 -18.31553,11.56036 -22.19694,22.578725 -2.01677,5.72513 -2.06659,6.74626 -2.35947,48.36354 l -0.2992,42.51492 h -9.39202 -9.39203 z"
     id="path22" />
  <path
     style="fill:#ffffff;stroke-width:0.899787"
     d="M 847.14925,123.4936 V 58.259062 h 9.89766 9.89765 l -0.0189,6.073561 c -0.0117,3.769614 -0.86503,8.957295 -2.24946,13.675536 -1.22683,4.181086 -2.23059,7.773575 -2.23059,7.983309 0,1.203199 3.10551,-2.506394 4.677,-5.586776 1.01536,-1.990273 4.20132,-5.973887 7.07991,-8.852475 9.48707,-9.487075 23.21702,-14.192942 41.40966,-14.192942 h 8.91872 v 7.540684 7.540685 l -14.17164,0.419185 c -11.71925,0.346646 -15.04443,0.757275 -19.21521,2.3729 -10.84633,4.201522 -17.65505,10.69226 -21.69326,20.680125 -2.03043,5.021956 -2.0596,5.639106 -2.31378,48.950686 l -0.25744,43.8646 h -9.86517 -9.86517 z"
     id="path24" />
  <path
     style="fill:#ffffff;stroke-width:0.899787"
     d="m 962.54691,111.57229 c 11.25858,-0.14278 29.68171,-0.14278 40.94029,0 11.2586,0.14278 2.047,0.2596 -20.47014,0.2596 -22.51717,0 -31.72873,-0.11682 -20.47015,-0.2596 z"
     id="path26" />
  <path
     style="fill:#ffffff;stroke-width:0.899787"
     d="m 969.97015,190.94175 c -3.46418,-0.74454 -10.1291,-3.22674 -14.81094,-5.51599 -11.67928,-5.71076 -19.82615,-13.87863 -25.62918,-25.69523 -6.33163,-12.89301 -7.24858,-17.4201 -7.24858,-35.78703 0,-13.75933 0.26114,-16.64816 2.06951,-22.89365 3.52711,-12.181441 8.49202,-20.636636 17.21511,-29.317212 12.15757,-12.09832 24.50763,-17.154522 41.90088,-17.154522 16.63065,0 29.86465,5.169261 40.49045,15.815778 3.4641,3.470938 7.6659,8.642416 9.3372,11.492173 6.0276,10.277639 10.0082,25.021923 10.0082,37.070673 v 6.78633 h -51.28787 -51.28785 v 3.03139 c 0,5.03209 2.57578,18.18334 4.53477,23.15334 1.01185,2.56708 3.30126,6.86932 5.08759,9.56054 15.81394,23.82472 58.56086,22.12823 70.36996,-2.79276 1.4358,-3.02996 2.8402,-6.21759 3.1209,-7.08364 0.4412,-1.36107 1.7346,-1.57463 9.5366,-1.57463 4.9643,0 9.0261,0.19321 9.0261,0.42935 0,0.23615 -0.986,3.04882 -2.191,6.25037 -6.1407,16.31426 -19.7136,28.54583 -37.01,33.35257 -7.60467,2.11336 -25.29644,2.57767 -33.23185,0.87215 z m 54.43705,-81.2058 c 0,-4.25324 -2.5767,-12.929356 -5.804,-19.542462 -7.6604,-15.697156 -23.66044,-24.063041 -40.91374,-21.392477 -13.50241,2.089977 -24.08977,9.689314 -30.08499,21.594234 -3.24176,6.437276 -5.9776,15.365055 -5.9776,19.506485 v 2.34454 h 41.39019 41.39014 z"
     id="path28" />
  <path
     style="fill:#ffffff;stroke-width:0.899787"
     d="M 1058.5991,123.4936 V 58.259062 h 9.4478 9.4478 l -2e-4,6.523454 c 0,4.41636 -0.7223,8.848525 -2.2359,13.721748 -2.5986,8.366017 -2.4538,7.648188 -1.5421,7.648188 0.3964,0 2.3911,-2.935554 4.4325,-6.523454 6.591,-11.583773 15.905,-19.022225 28.5887,-22.831838 8.096,-2.431663 24.0927,-2.27085 32.4297,0.326012 16.2108,5.049378 26.919,17.208549 30.4845,34.615014 1.183,5.775295 1.4206,14.467334 1.4206,51.962684 v 45.02727 h -9.4104 -9.4104 l -0.2623,-47.46375 -0.2623,-47.46375 -2.1415,-5.313673 c -2.931,-7.27262 -9.7156,-14.099803 -16.4833,-16.586765 -19.5438,-7.181829 -41.7552,1.1655 -50.4286,18.951681 -4.8974,10.043037 -5.1513,12.851707 -5.1657,57.160907 l -0.013,40.71535 h -9.4478 -9.4478 z"
     id="path30" />
  <path
     style="fill:#ffffff;stroke-width:0.899787"
     d="m 1220.7319,187.76751 c -5.2519,-1.03399 -10.7341,-4.23286 -13.7741,-8.03723 -5.0331,-6.29863 -5.2926,-9.28567 -5.2926,-60.92466 V 71.755864 h -12.1471 -12.1471 v -6.748401 -6.748401 h 12.1471 12.1471 V 38.913646 19.56823 h 9.4478 9.4478 v 19.345416 19.345416 h 22.0447 22.0448 v 6.748401 6.748401 h -22.0448 -22.0447 v 49.547426 c 0,32.43359 0.3217,50.14857 0.9314,51.28784 0.8803,1.6448 2.0915,1.74043 22.0448,1.74043 h 21.1133 v 7.19829 7.19829 l -20.0202,-0.0986 c -11.0112,-0.0543 -21.7653,-0.44215 -23.8982,-0.86205 z"
     id="path32" />
</svg>
